<?xml version="1.0" encoding="utf-8"?>
<svg xmlns="http://www.w3.org/2000/svg" viewBox="0 0 64 64" width="512" height="512">
  <linearGradient id="IO~7w88ty95zJDwXRe8LIa" x1="32" x2="32" y1="36.5" y2="43.502" gradientUnits="userSpaceOnUse">
    <stop offset="0" stop-color="#6dc7ff" />
    <stop offset="1" stop-color="#e6abff" />
  </linearGradient>
  <path fill="url(#IO~7w88ty95zJDwXRe8LIa)" d="M27.068,37c-0.62,0-1.123,0.553-1.004,1.157C26.608,40.917,29.059,43,32,43c2.941,0,5.392-2.083,5.935-4.843C38.054,37.553,37.552,37,36.932,37H27.068z" />
  <linearGradient id="IO~7w88ty95zJDwXRe8LIb" x1="32" x2="32" y1="6.617" y2="57.937" gradientUnits="userSpaceOnUse">
    <stop offset="0" stop-color="#1a6dff" />
    <stop offset="1" stop-color="#c822ff" />
  </linearGradient>
  <path fill="url(#IO~7w88ty95zJDwXRe8LIb)" d="M32,12c-11.028,0-20,8.972-20,20s8.972,20,20,20s20-8.972,20-20S43.028,12,32,12z M32,50 c-9.925,0-18-8.075-18-18s8.075-18,18-18s18,8.075,18,18S41.925,50,32,50z" />
  <linearGradient id="IO~7w88ty95zJDwXRe8LIc" x1="32" x2="32" y1="6.617" y2="57.937" gradientUnits="userSpaceOnUse">
    <stop offset="0" stop-color="#1a6dff" />
    <stop offset="1" stop-color="#c822ff" />
  </linearGradient>
  <path fill="url(#IO~7w88ty95zJDwXRe8LIc)" d="M58,32c0-1.912-1.209-3.766-3.345-5.167c0.229-1.288,0.093-2.596-0.403-3.824 c-0.529-1.312-1.445-2.426-2.618-3.203c0.566-2.548,0.118-4.823-1.249-6.19s-3.641-1.815-6.19-1.249 c-0.777-1.173-1.892-2.089-3.204-2.618c-1.228-0.497-2.534-0.634-3.823-0.403C35.766,7.209,33.912,6,32,6s-3.766,1.209-5.167,3.345 c-1.289-0.23-2.597-0.094-3.824,0.403c-1.31,0.529-2.43,1.446-3.208,2.617c-2.546-0.567-4.82-0.116-6.186,1.25 c-1.367,1.367-1.815,3.643-1.249,6.19c-1.173,0.777-2.089,1.892-2.618,3.204c-0.496,1.228-0.633,2.535-0.403,3.823 C7.209,28.234,6,30.088,6,32s1.209,3.766,3.345,5.167c-0.229,1.288-0.093,2.596,0.403,3.824c0.529,1.312,1.445,2.426,2.618,3.203 c-0.566,2.548-0.118,4.823,1.249,6.19c1.368,1.368,3.647,1.817,6.19,1.248c0.778,1.174,1.893,2.09,3.204,2.619 c1.228,0.497,2.534,0.634,3.823,0.403C28.234,56.791,30.088,58,32,58s3.766-1.209,5.167-3.345c1.289,0.23,2.597,0.094,3.824-0.403 c1.311-0.529,2.425-1.445,3.203-2.619c2.546,0.569,4.823,0.12,6.19-1.248c1.367-1.367,1.815-3.643,1.249-6.19 c1.173-0.777,2.089-1.892,2.618-3.204c0.496-1.228,0.633-2.535,0.403-3.823C56.791,35.766,58,33.912,58,32z M53.024,35.82 c-0.403,0.229-0.597,0.705-0.467,1.15c0.319,1.092,0.264,2.223-0.159,3.271c-0.451,1.116-1.294,2.032-2.374,2.58 c-0.431,0.218-0.644,0.713-0.507,1.176c0.634,2.139,0.429,3.997-0.547,4.974c-0.977,0.977-2.834,1.182-4.974,0.546 c-0.46-0.135-0.958,0.076-1.176,0.507c-0.548,1.08-1.464,1.924-2.579,2.375c-1.049,0.423-2.18,0.479-3.271,0.159 c-0.447-0.133-0.922,0.063-1.15,0.467C34.764,54.888,33.336,56,32,56s-2.764-1.112-3.82-2.976c-0.182-0.319-0.518-0.507-0.87-0.507 c-0.093,0-0.188,0.013-0.28,0.04c-1.093,0.319-2.224,0.264-3.271-0.159c-1.116-0.451-2.032-1.295-2.58-2.375 c-0.219-0.431-0.717-0.641-1.176-0.507c-2.14,0.636-3.997,0.431-4.974-0.546c-0.976-0.977-1.181-2.835-0.547-4.974 c0.137-0.463-0.076-0.958-0.507-1.176c-1.08-0.548-1.923-1.464-2.374-2.579c-0.423-1.049-0.479-2.18-0.159-3.271 c0.13-0.445-0.063-0.921-0.467-1.15C9.112,34.764,8,33.336,8,32s1.112-2.764,2.976-3.82c0.403-0.229,0.597-0.705,0.467-1.15 c-0.319-1.092-0.264-2.223,0.159-3.271c0.451-1.116,1.294-2.032,2.374-2.58c0.431-0.218,0.644-0.713,0.507-1.176 c-0.634-2.139-0.429-3.997,0.547-4.974c0.976-0.976,2.836-1.181,4.974-0.547c0.468,0.136,0.962-0.079,1.179-0.512l0.056-0.119 c0.552-1.017,1.447-1.815,2.521-2.25c1.049-0.423,2.18-0.479,3.271-0.159c0.443,0.131,0.921-0.063,1.15-0.467 C29.236,9.112,30.664,8,32,8s2.764,1.112,3.82,2.976c0.229,0.403,0.704,0.598,1.15,0.467c1.091-0.321,2.223-0.264,3.271,0.159 c1.116,0.451,2.032,1.294,2.58,2.374c0.218,0.43,0.707,0.642,1.176,0.507c2.137-0.633,3.998-0.43,4.974,0.547 s1.181,2.835,0.547,4.974c-0.137,0.463,0.076,0.958,0.507,1.176c1.08,0.548,1.923,1.464,2.374,2.579 c0.423,1.049,0.479,2.18,0.159,3.271c-0.13,0.445,0.063,0.921,0.467,1.15C54.888,29.236,56,30.664,56,32 S54.888,34.764,53.024,35.82z" />
  <linearGradient id="IO~7w88ty95zJDwXRe8LId" x1="25.826" x2="25.826" y1="6.617" y2="57.937" gradientUnits="userSpaceOnUse">
    <stop offset="0" stop-color="#1a6dff" />
    <stop offset="1" stop-color="#c822ff" />
  </linearGradient>
  <path fill="url(#IO~7w88ty95zJDwXRe8LId)" d="M19.651,21.826l1.543,1.271C23.866,19.858,27.805,18,32,18v-2 C27.205,16,22.704,18.123,19.651,21.826z" />
  <g>
    <linearGradient id="IO~7w88ty95zJDwXRe8LIe" x1="24" x2="24" y1="28.064" y2="33.643" gradientUnits="userSpaceOnUse">
      <stop offset="0" stop-color="#6dc7ff" />
      <stop offset="1" stop-color="#e6abff" />
    </linearGradient>
    <circle cx="24" cy="31" r="3" fill="url(#IO~7w88ty95zJDwXRe8LIe)" />
    <linearGradient id="IO~7w88ty95zJDwXRe8LIf" x1="40" x2="40" y1="28.064" y2="33.643" gradientUnits="userSpaceOnUse">
      <stop offset="0" stop-color="#6dc7ff" />
      <stop offset="1" stop-color="#e6abff" />
    </linearGradient>
    <circle cx="40" cy="31" r="3" fill="url(#IO~7w88ty95zJDwXRe8LIf)" />
  </g>
</svg>